<svg xmlns="http://www.w3.org/2000/svg" xmlns:xlink="http://www.w3.org/1999/xlink" width="138" height="40" viewBox="0 0 138 40">
  <defs>
    <radialGradient id="logo-b" cx="34.98%" cy="56.514%" r="68.293%" fx="34.98%" fy="56.514%">
      <stop offset="0%" stop-color="#004F95" stop-opacity=".6"/>
      <stop offset="100%" stop-color="#1FAEFF"/>
    </radialGradient>
    <circle id="logo-a" cx="20" cy="20" r="20"/>
    <filter id="logo-c" width="105%" height="105%" x="-2.5%" y="-2.5%" filterUnits="objectBoundingBox">
      <feGaussianBlur in="SourceAlpha" result="shadowBlurInner1" stdDeviation=".5"/>
      <feOffset dy="1" in="shadowBlurInner1" result="shadowOffsetInner1"/>
      <feComposite in="shadowOffsetInner1" in2="SourceAlpha" k2="-1" k3="1" operator="arithmetic" result="shadowInnerInner1"/>
      <feColorMatrix in="shadowInnerInner1" values="0 0 0 0 0.207843137   0 0 0 0 0.262745098   0 0 0 0 0.364705882  0 0 0 0.093212183 0"/>
    </filter>
    <path id="logo-f" d="M20.8447763,26.0131642 C21.8154412,27.2698952 22.4604441,28.5920045 22.7797852,29.9794922 C23.1321614,31.5105127 23.1321614,32.6887354 22.7797852,33.5141602 L19.4584961,32.2485352 C17.6712152,31.6582217 15.9379795,30.9018741 14.2587891,29.9794922 C11.8354492,28.4981689 12.3432617,29.4790039 11.1044922,27.659668 C9.86572266,25.840332 9.94005599,26.0458984 9.66821289,23.1342773 C9.92553711,20.5637207 11.1040039,20.168457 11.4033203,17.6420898 C11.7026367,15.1157227 11.1499023,14.0522461 10.7900391,12.824707 C10.6141141,12.224605 10.3303331,11.5791798 9.93081117,10.7851278 C9.97592876,10.5348766 10,10.2716549 10,10 C10,8.34314575 9.1045695,7 8,7 C7.97251276,7 7.94515504,7.00083176 7.9179374,7.00247942 C7.14086407,5.5828771 6.32300343,4.19858709 5.46435547,2.84960938 L-5.99169922,2.84960938 L-4.44921875,12.012207 L-3.40478516,24.8237305 L1.28320313,45.3754883 L19.4584961,44.0605469 C18.9602025,42.6680141 18.4572728,41.2785284 17.949707,39.8920898 C17.1883584,37.812432 16.6738281,38.0197922 16.6738281,36.4541016 C16.6738281,34.8884109 16.946167,35.1173096 17.949707,34.9744873 C18.6336263,34.9575602 19.6404622,35.1818848 20.9702148,35.6474609 C22.4982096,36.1359049 23.6523438,36.4047852 24.4326172,36.4541016 C25.6030273,36.5280762 25.6030273,36.4541016 25.7740479,35.6474609 C25.7924805,34.8408203 25.7630995,34.5502551 25.6030273,33.5141602 C25.4429552,32.4780652 24.177002,30.4476929 24.4326172,28.7330322 C24.5727878,27.792771 24.8279253,26.8526749 25.1980296,25.912744 C25.3770242,25.5234895 25.4947302,25.2539501 25.5511475,25.104126 C25.6452637,24.854187 25.6338501,24.8396301 26.010437,24.3769531 C26.3870239,23.9142761 26.3575439,24.015564 26.8336182,23.5013428 C27.3096924,22.9871216 27.8372803,22.8407593 28.4689331,22.5543213 C29.1005859,22.2678833 29.3601177,22.1918301 29.4850464,22.0441284 C29.6099751,21.8964267 29.8336792,21.657908 29.7171631,21.3179321 C29.600647,20.9779562 29.3517969,20.8064893 29.1941528,20.729187 C28.887085,20.5786133 28.5745239,20.75 28.2869873,20.9541016 C27.9994507,21.1582031 27.8717041,21.4884644 27.7137451,21.644104 C27.2284453,22.1222781 25.5511475,23.0114136 25.135498,22.4110107 C24.7198486,21.8106079 24.883667,21.9246826 24.9785767,21.1755371 C25.0734863,20.4263916 25.2080852,20.0038683 25.4056396,19.1541138 C25.6031941,18.3043593 25.7596436,17.6315918 26.09021,17.0689697 C26.4207764,16.5063477 26.279541,16.3413086 26.09021,16.008667 C25.9008789,15.6760254 25.7596436,15.6983643 25.5511475,15.6760254 C25.3426514,15.6536865 25.135498,15.6760254 24.883667,15.9435425 C24.6318359,16.2110596 24.5544434,16.3696289 24.522583,16.9700317 C24.4907227,17.5704346 24.3427243,18.0368776 24.1503906,18.762146 C23.9580569,19.4874144 23.3760376,20.9202576 23.260498,21.1755371 C23.1449585,21.4308167 23.0892944,21.6253662 22.8375854,21.7366333 C22.5858765,21.8479004 22.425415,21.895752 22.2537231,21.8235474 C22.0820313,21.7513428 21.835677,21.5758181 21.6620483,21.3179321 C21.5753279,21.1891286 21.0605462,20.5391077 20.6131592,19.7722778 C20.3280216,19.2835466 20.1295683,18.7044041 19.8945923,18.3217163 C19.7600875,18.1026585 19.7263232,17.5344233 19.652832,17.4176025 C19.2495117,16.7764893 19.2068481,16.6230469 18.8442993,16.5400391 C18.4817505,16.4570312 18.2957153,16.5634155 18.1999512,16.6289062 C18.104187,16.694397 17.9719238,16.7968361 17.9719238,17.0689697 C17.9719238,17.3411034 17.9361089,17.6996006 18.1349487,18.1616821 C18.1852024,18.278466 18.5611547,18.4593461 18.777832,18.9089355 C18.9723027,19.3124478 19.2760984,19.75197 19.4897461,20.2305908 C19.9799297,21.3287168 20.3538192,22.4547071 20.3997192,22.5543213 C20.487915,22.7457275 20.6609886,23.0651181 20.6131592,23.2659912 C20.5653298,23.4668643 20.4884644,23.6800537 20.3143921,23.7792969 C20.1403198,23.87854 19.9247657,23.9867998 19.652832,23.9142761 C19.4589634,23.8625721 18.5127062,23.5444815 17.6481934,23.2054138 C17.2559814,22.9006653 16.9697215,22.8354805 16.7001343,22.7589111 C16.0529175,22.7589111 15.8907297,22.9831304 15.8398132,23.2659912 C15.7888968,23.548852 15.9231362,23.9774567 16.4112549,24.2006836 C16.7001343,24.3327942 16.7486267,24.2577209 17.2039185,24.2961426 C18.1564465,24.5314985 19.6984939,25.0476341 20.8447763,26.0131642 Z"/>
    <filter id="logo-e" width="111.2%" height="109.4%" x="-5.6%" y="-2.4%" filterUnits="objectBoundingBox">
      <feOffset dy="1" in="SourceAlpha" result="shadowOffsetOuter1"/>
      <feGaussianBlur in="shadowOffsetOuter1" result="shadowBlurOuter1" stdDeviation=".5"/>
      <feColorMatrix in="shadowBlurOuter1" values="0 0 0 0 0.207843137   0 0 0 0 0.262745098   0 0 0 0 0.364705882  0 0 0 0.251500226 0"/>
    </filter>
  </defs>
  <g fill="none" fill-rule="evenodd">
    <mask id="logo-d" fill="#fff">
      <use xlink:href="#logo-a"/>
    </mask>
    <use fill="url(#logo-b)" xlink:href="#logo-a"/>
    <use fill="#000" filter="url(#logo-c)" xlink:href="#logo-a"/>
    <g mask="url(#logo-d)">
      <use fill="#000" filter="url(#logo-e)" xlink:href="#logo-f"/>
      <use fill="#FFF" xlink:href="#logo-f"/>
    </g>
    <g fill="#FFF" transform="translate(46)">
      <path d="M4.914 25L2.054 25 2.054 7.658 8.918 7.658C10.9113433 7.658 12.445328 8.12166203 13.52 9.049 14.594672 9.97633797 15.132 11.3413243 15.132 13.144 15.132 14.9466757 14.5903387 16.3376618 13.507 17.317 12.4236613 18.2963382 10.8940099 18.786 8.918 18.786L4.914 18.786 4.914 25zM8.554 16.342C9.92334018 16.342 10.8636641 16.0603361 11.375 15.497 11.8863359 14.9336638 12.142 14.1840047 12.142 13.248 12.142 12.2773285 11.8863359 11.5060029 11.375 10.934 10.8636641 10.3619971 9.92334018 10.076 8.554 10.076L4.914 10.076 4.914 16.342 8.554 16.342zM19.331 23.622C18.2823281 22.4433274 17.758 20.7273446 17.758 18.474 17.758 13.9153105 19.8379792 11.636 23.998 11.636 26.0953438 11.636 27.6726614 12.2209941 28.73 13.391 29.7873386 14.5610058 30.316 16.2553222 30.316 18.474 30.316 20.6926778 29.7700055 22.399994 28.678 23.596 27.5859945 24.792006 26.0346767 25.39 24.024 25.39 21.9439896 25.39 20.3796719 24.8006726 19.331 23.622zM27.586 18.474C27.586 16.948659 27.3000029 15.8090038 26.728 15.055 26.1559971 14.3009962 25.2460062 13.924 23.998 13.924 22.7326603 13.924 21.8270027 14.3096628 21.281 15.081 20.7349973 15.8523372 20.462 16.9833259 20.462 18.474 20.462 19.9646741 20.7436639 21.1043294 21.307 21.893 21.8703361 22.6816706 22.7673272 23.076 23.998 23.076 26.390012 23.076 27.586 21.5420153 27.586 18.474zM36.166 25L33.462 25 33.462 7.008 36.166 7.008 36.166 25zM51.402 6.488L51.402 22.244C51.402 22.9373368 51.1160029 23.522331 50.544 23.999 49.9719971 24.4756691 49.252671 24.8266655 48.386 25.052 47.519329 25.2773345 46.6266713 25.39 45.708 25.39 43.8533241 25.39 42.328006 24.8656719 41.132 23.817 39.935994 22.7683281 39.338 20.9353464 39.338 18.318 39.338 16.2206562 39.8493282 14.5826726 40.872 13.404 41.8946718 12.2253274 43.4113233 11.636 45.422 11.636 45.8900023 11.636 46.4316636 11.6966661 47.047 11.818 47.6623364 11.9393339 48.2126642 12.1213321 48.698 12.364L48.698 6.488 51.402 6.488zM48.698 14.73C48.2819979 14.4873321 47.8183359 14.3010006 47.307 14.171 46.7956641 14.0409993 46.2973358 13.976 45.812 13.976 43.3506544 13.976 42.12 15.440652 42.12 18.37 42.12 19.8260073 42.3973306 20.9656625 42.952 21.789 43.5066694 22.6123374 44.4773264 23.024 45.864 23.024 46.6613373 23.024 47.3329973 22.9286676 47.879 22.738 48.4250027 22.5473324 48.698 22.2960016 48.698 21.984L48.698 14.73zM64.519 12.689C65.5156717 13.3736701 66.0053334 14.478659 65.988 16.004L65.988 22.244C65.988 23.4226726 65.4680052 24.2416644 64.428 24.701 63.3879948 25.1603356 61.9060096 25.39 59.982 25.39 58.4393256 25.39 57.1653384 25.0693365 56.16 24.428 55.1546616 23.7866635 54.652 22.7120075 54.652 21.204 54.652 19.7826596 55.0636626 18.7166702 55.887 18.006 56.7103375 17.2953298 57.8759925 16.94 59.384 16.94 60.9440078 16.94 62.2439948 17.2519969 63.284 17.876L63.284 16.628C63.284 14.8599912 62.2180107 13.976 60.086 13.976 59.3233295 13.976 58.5606705 14.0929988 57.798 14.327 57.0353295 14.5610012 56.4026692 14.8859979 55.9 15.302L55.9 12.754C56.3853358 12.4419984 57.091662 12.182001 58.019 11.974 58.946338 11.765999 59.9039951 11.662 60.892 11.662 62.3133404 11.662 63.5223284 12.0043299 64.519 12.689zM62.608 23.024C63.0586689 22.8679992 63.284 22.5560023 63.284 22.088L63.284 19.566C62.3999956 19.1846648 61.4293386 18.994 60.372 18.994 59.3839951 18.994 58.6343359 19.1673316 58.123 19.514 57.6116641 19.8606684 57.356 20.3806632 57.356 21.074 57.356 21.8020036 57.6463304 22.3479982 58.227 22.712 58.8076696 23.0760018 59.4966627 23.258 60.294 23.258 61.3860055 23.258 62.1573311 23.1800008 62.608 23.024zM69.862 13.144C70.3473358 12.8493319 71.1706609 12.5286684 72.332 12.182 73.4933391 11.8353316 74.6459943 11.662 75.79 11.662 76.4833368 11.662 77.0726642 11.7746655 77.558 12L77.558 14.184C77.0726642 14.1146663 76.4920034 14.08 75.816 14.08 74.6719943 14.08 73.5973384 14.1666658 72.592 14.34L72.592 25 69.862 25 69.862 13.144zM91.728 25L88.192 25 82.94 19.15 82.94 25 80.236 25 80.236 7.008 82.966 7.008 82.94 16.836 87.698 11.948 91.052 11.948 85.124 17.616 91.728 25zM2.884 39L2.02 39 2.02 30.996 4.864 30.996C5.76000448 30.996 6.44599762 31.2079979 6.922 31.632 7.39800238 32.0560021 7.636 32.667996 7.636 33.468 7.636 34.268004 7.39800238 34.8799979 6.922 35.304 6.44599762 35.7280021 5.76000448 35.94 4.864 35.94L2.884 35.94 2.884 39zM4.756 35.112C5.556004 35.112 6.09199864 34.9600015 6.364 34.656 6.63600136 34.3519985 6.772 33.9560024 6.772 33.468 6.772 32.9799976 6.63600136 32.5840015 6.364 32.28 6.09199864 31.9759985 5.556004 31.824 4.756 31.824L2.884 31.824 2.884 35.112 4.756 35.112zM15.918 39L13.83 35.772 11.79 35.772 11.79 39 10.926 39 10.926 30.996 14.214 30.996C14.9900038 30.996 15.577998 31.191998 15.978 31.584 16.378002 31.976002 16.578 32.5559962 16.578 33.324 16.578 33.9400031 16.4140016 34.4599979 16.086 34.884 15.7579983 35.3080021 15.3180027 35.5719995 14.766 35.676L16.938 39 15.918 39zM11.79 34.956L13.818 34.956C14.4740032 34.956 14.9539984 34.8240013 15.258 34.56 15.5620015 34.2959987 15.714 33.9040026 15.714 33.384 15.714 32.8719974 15.5940012 32.4820013 15.354 32.214 15.1139988 31.9459987 14.7020029 31.812 14.118 31.812L11.79 31.812 11.79 34.956zM20.3539999 38.082C19.7499969 37.3899965 19.4479999 36.3640068 19.4479999 35.004 19.4479999 33.6439932 19.7499969 32.6180035 20.3539999 31.926 20.9580029 31.2339965 21.851994 30.888 23.0359999 30.888 24.2280059 30.888 25.1259969 31.2339965 25.7299999 31.926 26.3340029 32.6180035 26.6359999 33.6439932 26.6359999 35.004 26.6359999 36.3640068 26.3340029 37.3899965 25.7299999 38.082 25.1259969 38.7740035 24.2280059 39.12 23.0359999 39.12 21.851994 39.12 20.9580029 38.7740035 20.3539999 38.082zM25.0999999 37.512C25.5320021 36.9839974 25.7479999 36.1480057 25.7479999 35.004 25.7479999 33.8679943 25.5320021 33.0340027 25.0999999 32.502 24.6679977 31.9699973 23.9800046 31.704 23.0359999 31.704 22.0999952 31.704 21.4160021 31.9699973 20.9839999 32.502 20.5519977 33.0340027 20.3359999 33.8679943 20.3359999 35.004 20.3359999 36.1480057 20.5519977 36.9839974 20.9839999 37.512 21.4160021 38.0400026 22.0999952 38.304 23.0359999 38.304 23.9800046 38.304 24.6679977 38.0400026 25.0999999 37.512zM30.8739999 38.964C30.5459982 38.8599995 30.1500022 38.6840012 29.6859999 38.436L29.6859999 37.5C29.9740013 37.7400012 30.3359977 37.9379992 30.7719999 38.094 31.208002 38.2500008 31.6939972 38.328 32.2299999 38.328 32.8140028 38.328 33.2499984 38.2040012 33.5379999 37.956 33.8260013 37.7079988 33.9699999 37.3720021 33.9699999 36.948 33.9699999 36.6359984 33.8860007 36.378001 33.7179999 36.174 33.549999 35.969999 33.350001 35.8100006 33.1179999 35.694 32.8859987 35.5779994 32.5380022 35.4320009 32.0739999 35.256 31.5779974 35.0879992 31.1840013 34.9280008 30.8919999 34.776 30.5999984 34.6239992 30.3500009 34.4000015 30.1419999 34.104 29.9339988 33.8079985 29.8299999 33.4160024 29.8299999 32.928 29.8299999 32.5999984 29.911999 32.2800016 30.0759999 31.968 30.2400007 31.6559984 30.503998 31.396001 30.8679999 31.188 31.2320017 30.979999 31.701997 30.876 32.2779999 30.876 32.702002 30.876 33.0479985 30.9159996 33.3159999 30.996 33.5840012 31.0760004 33.9379977 31.2239989 34.3779999 31.44L34.3779999 32.328C34.3219996 32.2959998 34.1720011 32.2100007 33.9279999 32.07 33.6839986 31.9299993 33.4320012 31.8280003 33.1719999 31.764 32.9119986 31.6999997 32.6300014 31.668 32.3259999 31.668 31.7739971 31.668 31.3660012 31.7819989 31.1019999 32.01 30.8379985 32.2380011 30.7059999 32.5239983 30.7059999 32.868 30.7059999 33.1800016 30.7759992 33.431999 30.9159999 33.624 31.0560006 33.816001 31.2439987 33.9719994 31.4799999 34.092 31.716001 34.2120006 32.0499977 34.3439993 32.4819999 34.488 32.9780023 34.6560008 33.3839983 34.8219992 33.6999999 34.986 34.0160014 35.1500008 34.2859987 35.3839985 34.5099999 35.688 34.734001 35.9920015 34.8459999 36.3799976 34.8459999 36.852 34.8459999 37.4840032 34.636002 38.0199978 34.2159999 38.46 33.7959978 38.9000022 33.1220045 39.12 32.1939999 39.12 31.6419971 39.12 31.2020015 39.0680005 30.8739999 38.964zM40.1879998 39L40.1879998 31.812 37.3559998 31.812 37.3559998 30.996 43.8719998 30.996 43.8719998 31.812 41.0519998 31.812 41.0519998 39 40.1879998 39zM46.6819998 39L46.6819998 30.996 47.5459998 30.996 47.5459998 34.596 51.8059998 34.596 51.8059998 30.996 52.6699998 30.996 52.6699998 39 51.8059998 39 51.8059998 35.412 47.5459998 35.412 47.5459998 39 46.6819998 39zM56.2599997 39L56.2599997 30.996 61.3119997 30.996 61.3119997 31.812 57.1239997 31.812 57.1239997 34.572 60.8079997 34.572 60.8079997 35.412 57.1239997 35.412 57.1239997 38.184 61.3119997 38.184 61.3119997 39 56.2599997 39zM66.8339997 39L66.8339997 31.812 64.0019997 31.812 64.0019997 30.996 70.5179997 30.996 70.5179997 31.812 67.6979997 31.812 67.6979997 39 66.8339997 39zM73.3279996 39L73.3279996 30.996 74.1919996 30.996 74.1919996 39 73.3279996 39zM78.3519996 38.064C77.7319965 37.3759966 77.4219996 36.3520068 77.4219996 34.992 77.4219996 33.6319932 77.7319965 32.6080034 78.3519996 31.92 78.9720027 31.2319966 79.8979934 30.888 81.1299996 30.888 81.9460037 30.888 82.7579955 31.083998 83.5659996 31.476L83.5659996 32.304C82.8139958 31.903998 82.0340036 31.704 81.2259996 31.704 80.2179945 31.704 79.4820019 31.9679974 79.0179996 32.496 78.5539973 33.0240026 78.3219996 33.8559943 78.3219996 34.992 78.3219996 36.1360057 78.5519973 36.9699974 79.0119996 37.494 79.4720019 38.0180026 80.2099945 38.28 81.2259996 38.28 82.0740038 38.28 82.853996 38.084002 83.5659996 37.692L83.5659996 38.52C82.7499955 38.9040019 81.9380036 39.096 81.1299996 39.096 79.8979934 39.096 78.9720027 38.7520034 78.3519996 38.064zM87.7439995 38.964C87.4159979 38.8599995 87.0200018 38.6840012 86.5559995 38.436L86.5559995 37.5C86.844001 37.7400012 87.2059973 37.9379992 87.6419995 38.094 88.0780017 38.2500008 88.5639968 38.328 89.0999995 38.328 89.6840024 38.328 90.1199981 38.2040012 90.4079995 37.956 90.696001 37.7079988 90.8399995 37.3720021 90.8399995 36.948 90.8399995 36.6359984 90.7560004 36.378001 90.5879995 36.174 90.4199987 35.969999 90.2200007 35.8100006 89.9879995 35.694 89.7559984 35.5779994 89.4080018 35.4320009 88.9439995 35.256 88.447997 35.0879992 88.054001 34.9280008 87.7619995 34.776 87.4699981 34.6239992 87.2200006 34.4000015 87.0119995 34.104 86.8039985 33.8079985 86.6999995 33.4160024 86.6999995 32.928 86.6999995 32.5999984 86.7819987 32.2800016 86.9459995 31.968 87.1100003 31.6559984 87.3739977 31.396001 87.7379995 31.188 88.1020013 30.979999 88.5719966 30.876 89.1479995 30.876 89.5720016 30.876 89.9179982 30.9159996 90.1859995 30.996 90.4540009 31.0760004 90.8079973 31.2239989 91.2479995 31.44L91.2479995 32.328C91.1919992 32.2959998 91.0420007 32.2100007 90.7979995 32.07 90.5539983 31.9299993 90.3020008 31.8280003 90.0419995 31.764 89.7819982 31.6999997 89.500001 31.668 89.1959995 31.668 88.6439968 31.668 88.2360008 31.7819989 87.9719995 32.01 87.7079982 32.2380011 87.5759995 32.5239983 87.5759995 32.868 87.5759995 33.1800016 87.6459988 33.431999 87.7859995 33.624 87.9260002 33.816001 88.1139983 33.9719994 88.3499995 34.092 88.5860007 34.2120006 88.9199974 34.3439993 89.3519995 34.488 89.848002 34.6560008 90.2539979 34.8219992 90.5699995 34.986 90.8860011 35.1500008 91.1559984 35.3839985 91.3799995 35.688 91.6040006 35.9920015 91.7159995 36.3799976 91.7159995 36.852 91.7159995 37.4840032 91.5060016 38.0199978 91.0859995 38.46 90.6659974 38.9000022 89.9920042 39.12 89.0639995 39.12 88.5119968 39.12 88.0720012 39.0680005 87.7439995 38.964z"/>
    </g>
  </g>
</svg>
